<svg width="30" height="30" viewBox="0 0 30 30" fill="none" xmlns="http://www.w3.org/2000/svg">
<path d="M25.65 9.83072H16.35C15.225 9.83072 14.25 10.8057 14.25 11.9307V27.8307H27.75V11.9307C27.75 10.8057 26.775 9.83072 25.65 9.83072ZM24.75 24.0807H18V21.8307H24.75V24.0807ZM24.75 19.5807H18V17.3307H24.75V19.5807ZM24.75 15.0807H18V12.8307H24.75V15.0807ZM13.875 2.33072L3 5.33072C2.1 5.63072 1.5 6.45572 1.5 7.35572V27.8307H12.75H13.5V11.9307C13.5 10.3557 14.775 9.08072 16.35 9.08072H16.575V8.33072V4.35572C16.575 2.93072 15.225 1.95572 13.875 2.33072ZM12 24.0807H6.375V21.8307H12V24.0807ZM12 19.5807H6.375V17.3307H12V19.5807ZM12 15.0807H6.375V12.8307H12V15.0807ZM12 10.5807H6.375V8.33072H12V10.5807Z" fill="url(#paint0_linear)"/>
<defs>
<linearGradient id="paint0_linear" x1="19.6327" y1="14.9939" x2="-10.7308" y2="14.9939" gradientUnits="userSpaceOnUse">
<stop stop-color="white"/>
<stop offset="1" stop-color="#BADFF7"/>
</linearGradient>
</defs>
</svg>
