<svg width="30" height="30" viewBox="0 0 30 30" fill="none" xmlns="http://www.w3.org/2000/svg">
<path d="M18.7295 7.60926H11.2711L9.16048 2.0491C9.06005 1.78265 9.25942 1.5 9.54873 1.5H20.4518C20.7411 1.5 20.9405 1.78265 20.8401 2.0491L18.7295 7.60926ZM15.4946 19.8999V22.1611C15.8191 22.1081 16.0754 21.9808 16.2643 21.7791C16.4532 21.5774 16.5476 21.3279 16.5476 21.0305C16.5476 20.7545 16.4584 20.5285 16.2801 20.3541C16.1032 20.1789 15.8408 20.0273 15.4946 19.8999ZM13.4844 16.0467C13.4844 16.3124 13.5683 16.5347 13.7355 16.715C13.9026 16.8953 14.1432 17.0551 14.4565 17.1927V14.9794C14.1537 15.0324 13.9161 15.1465 13.743 15.3217C13.5706 15.4976 13.4844 15.739 13.4844 16.0467ZM25.2329 28.5H4.76762C3.38552 28.5 2.54832 27.0191 3.25886 25.8554C4.43933 23.9232 4.54202 21.6753 4.54202 21.6753V18.3108C4.54202 15.4748 5.71275 12.9074 7.60601 11.0489C8.69429 9.9801 10.0217 9.14688 11.5027 8.63017H18.4994C22.5549 10.0434 25.4593 13.8429 25.4593 18.31V21.6746C25.4593 21.6746 25.5627 23.9225 26.7424 25.8546C27.4522 27.0191 26.615 28.5 25.2329 28.5ZM19.4505 20.9348C19.4505 20.1708 19.2586 19.568 18.8749 19.1278C18.4911 18.6876 18.0556 18.3711 17.57 18.1805C17.0835 17.9891 16.3917 17.772 15.4946 17.5276V15.0596C15.981 15.2296 16.2561 15.6006 16.3213 16.174H19.2886C19.2129 15.1767 18.8456 14.3964 18.1861 13.8334C17.5265 13.271 16.6293 12.9471 15.4946 12.8618V11.5722H14.4565V12.8618C13.3113 12.9361 12.3736 13.2651 11.6436 13.8488C10.9136 14.4325 10.5493 15.2076 10.5493 16.1733C10.5493 16.9483 10.7382 17.5585 11.1167 18.0046C11.4952 18.4506 11.9352 18.7745 12.4381 18.9754C12.9403 19.1771 13.6133 19.3847 14.4565 19.5967V22.1125C13.8944 21.9322 13.5811 21.5237 13.5159 20.8862H10.5651C10.6085 21.8843 10.981 22.6719 11.6841 23.2505C12.3864 23.829 13.3113 24.1661 14.4565 24.2618V25.5676H15.4946V24.278C16.316 24.2463 17.0266 24.0734 17.6269 23.7605C18.2265 23.4477 18.6807 23.0436 18.9888 22.5505C19.2968 22.0573 19.4505 21.5185 19.4505 20.9348Z" fill="url(#paint0_linear)"/>
<defs>
<linearGradient id="paint0_linear" x1="19.5789" y1="14.951" x2="-8.18193" y2="14.951" gradientUnits="userSpaceOnUse">
<stop stop-color="white"/>
<stop offset="1" stop-color="#BADFF7"/>
</linearGradient>
</defs>
</svg>
