<svg width="30" height="30" viewBox="0 0 30 30" fill="none" xmlns="http://www.w3.org/2000/svg">
<path d="M10.9025 9.02721C10.9025 6.5257 12.9268 4.5 15.4188 4.5C17.9108 4.5 19.9351 6.5257 19.9351 9.02721C19.9351 11.5287 17.9143 13.5544 15.4188 13.5544C12.9233 13.5544 10.9025 11.5287 10.9025 9.02721ZM16.1692 15.1183H14.1763C10.372 15.1183 7.28671 18.2111 7.28671 22.0246V24.75H23.0553V22.0246C23.0553 18.2111 19.9735 15.1183 16.1692 15.1183ZM22.092 15.2443C21.743 15.2443 21.401 15.2792 21.0659 15.3352C23.1182 16.8466 24.4549 19.2817 24.4549 22.0246V23.3331H28.5V21.6677C28.4965 18.1201 25.6311 15.2443 22.092 15.2443ZM19.806 12.9946C20.4586 13.5999 21.3312 13.9743 22.2945 13.9743C24.3223 13.9743 25.9626 12.3264 25.9626 10.2972C25.9626 8.26451 24.3188 6.62016 22.2945 6.62016C21.8128 6.62016 21.3521 6.71463 20.9298 6.88606C21.1881 7.55079 21.3347 8.27501 21.3347 9.03071C21.3312 10.5526 20.7518 11.9451 19.806 12.9946ZM9.21678 15.3807C8.79447 15.2932 8.35471 15.2443 7.90447 15.2443C4.36892 15.2443 1.5 18.1201 1.5 21.6677V23.3331H5.89413V22.0246C5.89413 19.3096 7.20295 16.8991 9.21678 15.3807ZM8.1069 13.9743C9.18886 13.9743 10.1556 13.5019 10.8292 12.7567C10.0056 11.7386 9.50995 10.4407 9.50995 9.02721C9.50995 8.33448 9.6356 7.67674 9.85199 7.05749C9.33195 6.7776 8.73863 6.61666 8.1069 6.61666C6.07911 6.61666 4.43873 8.26451 4.43873 10.2937C4.43524 12.3264 6.07911 13.9743 8.1069 13.9743Z" fill="url(#paint0_linear)"/>
<defs>
<linearGradient id="paint0_linear" x1="20.1508" y1="14.5882" x2="-11.0803" y2="14.5882" gradientUnits="userSpaceOnUse">
<stop stop-color="white"/>
<stop offset="1" stop-color="#BADFF7"/>
</linearGradient>
</defs>
</svg>
