<svg width="446" height="396" viewBox="0 0 446 396" fill="none" xmlns="http://www.w3.org/2000/svg">
<path d="M-10.0898 0H45.7947V364.604H-10.0898V0ZM-116 0H-85.8043V364.604H-116V0ZM102.13 0V364.604H202.181V0H102.13ZM245.447 0H242.292V364.604H245.447C367.581 364.604 446 290.396 446 182.302C446 74.2076 367.581 0 245.447 0Z" fill="#E8EEF7"/>
<rect x="191" y="165" width="91.5" height="33" transform="rotate(-90 191 165)" fill="url(#paint0_linear)" fill-opacity="0.5"/>
<circle cx="207.5" cy="73.5001" r="16.5" transform="rotate(-90 207.5 73.5001)" fill="#44E2DE"/>
<rect x="320" y="396" width="51.6805" height="18.6389" transform="rotate(-90 320 396)" fill="url(#paint1_linear)" fill-opacity="0.5"/>
<circle cx="329.319" cy="344.32" r="9.31944" transform="rotate(-90 329.319 344.32)" fill="#41A5F7"/>
<defs>
<linearGradient id="paint0_linear" x1="282.5" y1="172.5" x2="194" y2="173.25" gradientUnits="userSpaceOnUse">
<stop stop-color="#44E2DE"/>
<stop offset="1" stop-color="#44E2DE" stop-opacity="0"/>
</linearGradient>
<linearGradient id="paint1_linear" x1="371.68" y1="400.236" x2="321.694" y2="400.66" gradientUnits="userSpaceOnUse">
<stop stop-color="#41A5F7"/>
<stop offset="1" stop-color="#41A5F7" stop-opacity="0"/>
</linearGradient>
</defs>
</svg>
