<svg width="13" height="12" viewBox="0 0 13 12" fill="none" xmlns="http://www.w3.org/2000/svg">
<path d="M3.12179 4.5625H0.646484V11.9998H3.12179V4.5625Z" fill="white"/>
<path d="M3.28471 2.26193C3.26864 1.53271 2.74717 0.977295 1.90039 0.977295C1.0536 0.977295 0.5 1.53271 0.5 2.26193C0.5 2.97605 1.03724 3.54746 1.86826 3.54746H1.88407C2.74717 3.54746 3.28471 2.97605 3.28471 2.26193Z" fill="white"/>
<path d="M12.0485 7.73555C12.0485 5.45114 10.8273 4.38794 9.19846 4.38794C7.88424 4.38794 7.29583 5.1098 6.9673 5.61621V4.56278H4.4917C4.52433 5.26065 4.4917 12 4.4917 12H6.9673V7.84646C6.9673 7.62419 6.98337 7.40246 7.04882 7.24331C7.22772 6.79926 7.63504 6.3395 8.3189 6.3395C9.21497 6.3395 9.57316 7.02148 9.57316 8.02091V11.9999H12.0484L12.0485 7.73555Z" fill="white"/>
</svg>
