<svg width="143" height="30" viewBox="0 0 143 30" fill="none" xmlns="http://www.w3.org/2000/svg">
<path d="M48.2266 9.63528C48.2266 8.15293 49.4063 6.98822 51.1581 6.98822C52.9098 6.98822 54.0538 8.15293 54.0538 9.63528C54.0538 11.1176 52.8741 12.247 51.1581 12.247C49.4421 12.247 48.2266 11.0823 48.2266 9.63528Z" fill="#41A5F7"/>
<path d="M53.6249 13.9059H48.6914V29.7529H53.6249V13.9059Z" fill="#131720"/>
<path d="M61.2396 13.9059L64.7431 25.2353L68.2109 13.9412H73.4661L67.7461 29.7882H61.6686L55.9844 13.9059H61.2396Z" fill="#131720"/>
<path d="M81.5816 30C76.8626 30 73.4663 26.8588 73.4663 21.8471C73.4663 16.8353 76.7911 13.6941 81.5816 13.6941C86.2648 13.6941 89.5896 16.7647 89.5896 21.6C89.5896 22.0588 89.5538 22.5529 89.518 23.0118H78.3641C78.5428 25.0941 79.8298 26.0471 81.4028 26.0471C82.5111 26.1177 83.5121 25.5177 83.9768 24.5294H89.2321C88.4456 27.6 85.5856 30 81.5816 30ZM78.3998 20.2941H84.5488C84.5488 18.5647 83.1546 17.5765 81.5458 17.5765C79.9371 17.5765 78.6858 18.5294 78.3998 20.2941Z" fill="#131720"/>
<path d="M110.718 30C106.428 30 103.568 27.6353 103.317 24.5647H108.179C108.287 25.6588 109.288 26.4 110.646 26.4C111.897 26.4 112.577 25.8353 112.577 25.1294C112.577 22.5882 103.818 24.4235 103.818 18.6C103.818 15.8824 106.142 13.6941 110.36 13.6941C114.507 13.6941 116.795 15.9529 117.117 19.0941H112.577C112.434 18 111.611 17.2941 110.217 17.2941C109.073 17.2941 108.43 17.7529 108.43 18.5294C108.43 21.0706 117.117 19.2706 117.224 25.1647C117.224 27.9177 114.757 30 110.718 30Z" fill="#131720"/>
<path d="M119.012 9.63528C119.012 8.15293 120.191 6.98822 121.943 6.98822C123.695 6.98822 124.839 8.15293 124.839 9.63528C124.839 11.1176 123.659 12.247 121.943 12.247C120.227 12.247 119.012 11.0823 119.012 9.63528Z" fill="url(#paint0_linear)"/>
<path d="M124.41 13.9059H119.477V29.7529H124.41V13.9059Z" fill="#131720"/>
<path d="M127.735 13.4471C127.735 9.28236 130.309 7.2706 135.207 7.51766V11.6471C133.312 11.5412 132.633 12.1059 132.633 13.7647V13.9059H135.278V17.9647H132.633V29.7883H127.699V13.4471H127.735Z" fill="#131720"/>
<path d="M137.137 9.63528C137.137 8.15293 138.317 6.98822 140.069 6.98822C141.82 6.98822 142.964 8.15293 142.964 9.63528C142.964 11.1176 141.785 12.247 140.069 12.247C138.353 12.247 137.137 11.0823 137.137 9.63528Z" fill="#44E2DE"/>
<path d="M142.535 13.9059H137.602V29.7529H142.535V13.9059Z" fill="#131720"/>
<path d="M99.4566 13.6941C94.5589 13.4471 91.9849 15.4941 91.9849 19.6235V29.7529H96.8826V19.9412C96.8826 18.2471 97.5619 17.6824 99.4566 17.8235L101.923 17.9294V13.8L99.4566 13.6941Z" fill="#131720"/>
<path d="M8.40125 0H12.8343V30H8.40125V0ZM0 0H2.39525V30H0V0ZM17.303 0V30H25.2395V0H17.303ZM28.6715 0H28.4213V30H28.6715C38.3598 30 44.5802 23.8941 44.5802 15C44.5802 6.10588 38.3598 0 28.6715 0Z" fill="#131720"/>
<defs>
<linearGradient id="paint0_linear" x1="117.928" y1="9.63528" x2="124.456" y2="9.63528" gradientUnits="userSpaceOnUse">
<stop offset="0.09" stop-color="#41A5F7"/>
<stop offset="1" stop-color="#44E2DE"/>
</linearGradient>
</defs>
</svg>
