<svg width="60" height="60" viewBox="0 0 60 60" fill="none" xmlns="http://www.w3.org/2000/svg">
<path d="M35.9417 16.6777H31.3623V18.4926H35.9417C37.4626 18.4926 38.6827 17.2717 38.6827 15.7868V10.1936C39.9362 9.74811 40.705 8.47769 40.471 7.17426C40.237 5.87084 39.1005 4.91389 37.7635 4.91389C36.4264 4.91389 35.2899 5.87084 35.0559 7.17426C34.8219 8.47769 35.5908 9.74811 36.8442 10.1936V15.7868C36.861 16.2817 36.4598 16.6777 35.9417 16.6777ZM31.3623 22.1059H40.5211C41.0225 22.1059 41.4404 21.6934 41.4404 21.1985C41.4404 20.7035 41.0225 20.291 40.5211 20.291H31.3623V22.1059ZM31.3623 41.9873H35.9417C36.4431 41.9873 36.861 42.3997 36.861 42.8947V48.4879C35.6075 48.9334 34.8387 50.2038 35.0726 51.5072C35.3066 52.8106 36.4431 53.7676 37.7802 53.7676C39.1172 53.7676 40.2537 52.8106 40.4877 51.5072C40.7217 50.2038 39.9529 48.9334 38.6994 48.4879V42.8947C38.6994 41.3933 37.4626 40.1889 35.9584 40.1889H31.379L31.3623 41.9873ZM45.1006 32.9458H31.3623V34.7607H45.1006C45.602 34.7607 46.0198 35.1732 46.0198 35.6681V40.3539C44.7663 40.7993 43.9975 42.0698 44.2315 43.3732C44.4655 44.6766 45.602 45.6336 46.939 45.6336C48.2761 45.6336 49.4126 44.6766 49.6466 43.3732C49.8805 42.0698 49.1117 40.7993 47.8582 40.3539V35.6681C47.8415 34.1667 46.6215 32.9623 45.1006 32.9458ZM54.2594 26.6266C53.1062 26.6266 52.07 27.3526 51.6856 28.4415H31.3623V30.2564H51.6689C52.1368 31.5599 53.5073 32.3023 54.8778 31.9888C56.2316 31.6754 57.1341 30.4049 56.9837 29.0355C56.8165 27.6496 55.6466 26.6266 54.2594 26.6266ZM41.4404 37.4665C41.4404 36.9716 41.0225 36.5591 40.5211 36.5591H31.3623V38.374H40.5211C41.0225 38.374 41.4404 37.9615 41.4404 37.4665ZM47.8415 23.0134V18.3276C49.095 17.8821 49.8638 16.6117 49.6298 15.3083C49.3959 14.0049 48.2761 13.0644 46.939 13.0644C45.602 13.0644 44.4655 14.0214 44.2315 15.3248C43.9975 16.6282 44.7663 17.8986 46.0198 18.3441V23.0299C46.0198 23.5248 45.602 23.9373 45.1006 23.9373H31.3623V25.7522H45.1006C46.6215 25.7192 47.8415 24.5148 47.8415 23.0134ZM22.3205 3C18.1255 3 14.5321 5.60685 13.1115 9.26964C16.4876 9.33564 19.6631 10.6556 22.0531 13.0149C22.0698 13.0314 22.0698 13.0314 22.0865 13.0479C23.1394 14.1039 22.0363 15.8693 20.599 15.4238C20.131 15.2753 19.7132 15.0443 19.3455 14.7308C17.3734 13.0314 14.8998 12.2395 12.4597 12.3385C7.21173 12.553 3 16.8427 3 22.0729C3 24.8283 4.18664 27.4351 6.19222 29.25C4.18664 31.0814 3 33.6717 3 36.4271C3 41.6573 7.21173 45.947 12.4597 46.1615C12.6769 51.3422 17.0224 55.5 22.3205 55.5C22.4207 55.5 22.5043 55.5 22.6046 55.5C24.6269 55.4505 26.5155 54.708 28.0364 53.4211V5.07888C26.5155 3.79195 24.6102 3.066 22.6046 3C22.5043 3 22.4207 3 22.3205 3Z" fill="url(#paint0_linear)"/>
<defs>
<linearGradient id="paint0_linear" x1="40.3016" y1="29.1546" x2="-22.1605" y2="29.1546" gradientUnits="userSpaceOnUse">
<stop stop-color="white"/>
<stop offset="1" stop-color="#BADFF7"/>
</linearGradient>
</defs>
</svg>
