<svg width="60" height="60" viewBox="0 0 60 60" fill="none" xmlns="http://www.w3.org/2000/svg">
<path d="M6.4222 53.5802C6.93115 54.1434 7.88736 54.1434 8.39631 53.5802L14.6657 47.3089C15.9072 47.4786 18.637 47.7871 22.0994 47.7871C29.2247 47.7871 39.4115 46.4604 46.0587 39.8419C56.4691 29.4204 53.7855 10.1589 53.4308 7.92192C53.2611 6.84198 52.7907 6.67227 51.8576 6.53342C48.8194 6.0783 30.2889 3.81814 20.1485 13.931C10.3242 23.7893 12.1826 41.5621 12.6916 45.3341L6.4222 51.6055C5.85927 52.1455 5.85927 53.0403 6.4222 53.5802ZM15.6604 42.3643L20.2641 37.7514V24.2444C20.2641 23.4653 20.8965 22.8328 21.6753 22.8328C22.4542 22.8328 23.0865 23.4653 23.0865 24.2444V34.9358L28.7158 29.297V15.5972C28.7158 14.8181 29.3481 14.1856 30.127 14.1856C30.9058 14.1856 31.5382 14.8181 31.5382 15.5972V26.4737L37.1675 20.8349V13.3833C37.1675 12.6042 37.7998 11.9717 38.5787 11.9717C39.3575 11.9717 39.9898 12.6042 39.9898 13.3833V18.0194L48.4261 9.56497C49.845 8.14562 51.8345 10.1589 50.4233 11.5629L41.9639 20.0172H46.5985C47.3773 20.0172 48.0097 20.6498 48.0097 21.4289C48.0097 22.208 47.3773 22.8405 46.5985 22.8405H39.1416L33.5046 28.4716H44.3776C45.1565 28.4716 45.7888 29.1042 45.7888 29.8833C45.7888 30.6624 45.1565 31.2949 44.3776 31.2949H30.6899L25.0529 36.926H35.7409C36.5197 36.926 37.152 37.5586 37.152 38.3377C37.152 39.1168 36.5197 39.7493 35.7409 39.7493H22.2382L17.6345 44.3545C16.4239 45.5424 14.4652 43.5599 15.6604 42.3643Z" fill="url(#paint0_linear)"/>
<defs>
<linearGradient id="paint0_linear" x1="39.157" y1="29.9141" x2="-16.3649" y2="29.9141" gradientUnits="userSpaceOnUse">
<stop stop-color="white"/>
<stop offset="1" stop-color="#BADFF7"/>
</linearGradient>
</defs>
</svg>
