<svg width="60" height="60" viewBox="0 0 60 60" xmlns="http://www.w3.org/2000/svg">
<path d="M36.378 34.3219V34.6819C36.3855 35.9494 35.3626 36.9769 34.1083 36.9769H28.0906H27.2171L27.1947 32.0344H33.5558H34.0859C35.3477 32.0269 36.378 33.0544 36.378 34.3219ZM35.5792 25.8544V25.5169C35.5717 24.3844 34.6459 23.4619 33.5185 23.4619H28.0234H27.1499L27.1723 27.9169H33.5334C34.6683 27.9094 35.5792 26.9869 35.5792 25.8544ZM48.9959 43.4944C41.6716 54.1219 30.868 56.8444 30.4126 56.9569C30.2707 56.9869 30.1363 57.0019 29.9945 57.0019C29.8526 57.0019 29.7182 56.9869 29.5838 56.9494C29.1284 56.8369 18.3249 54.1144 11.0005 43.4869C3.66876 32.8444 6.52831 11.4619 6.64776 10.5544C6.74482 9.86438 7.24506 9.28688 7.91701 9.09938L29.5241 3.06188C29.8302 2.97937 30.1587 2.97937 30.4648 3.06188L52.0719 9.09938C52.7439 9.28688 53.2441 9.85688 53.3412 10.5544C53.4681 11.4619 56.3276 32.8519 48.9959 43.4944ZM40.477 34.6744V34.3144C40.4695 32.4619 39.6632 30.7894 38.4014 29.6194C39.2003 28.5769 39.6781 27.2719 39.6706 25.8469V25.5094C39.6557 22.2319 37.0873 19.5469 33.8694 19.3519L33.8545 17.0194H29.7556L29.763 19.3369H28.0831L28.0682 17.0194H23.9693L23.9767 19.3369H23.0211H21.0052L21.0276 23.4544H23.0584L23.0808 27.9094L23.1032 32.0269L23.1256 36.9694H21.0948L21.1172 41.0869H23.148H24.1037L24.1111 42.9769H28.2101L28.2026 41.0869H29.8825L29.8899 42.9769H33.9889L33.9814 41.0869H34.1382C37.6473 41.0869 40.4994 38.2144 40.477 34.6744Z" />
<defs>
<linearGradient id="whiteblue" x1="39.157" y1="29.9141" x2="-16.3649" y2="29.9141" gradientUnits="userSpaceOnUse">
<stop offset="0" stop-color="white"/>
<stop offset="1" stop-color="#BADFF7"/>
</linearGradient>
</defs>
</svg>
