<svg aria-hidden="true" style="position: absolute; width: 0; height: 0; overflow: hidden;" version="1.1" xmlns="http://www.w3.org/2000/svg" xmlns:xlink="http://www.w3.org/1999/xlink">
<defs>
<symbol id="icon-right_light" viewBox="0 0 32 32">
<path d="M25.333 16l0.943-0.943 0.943 0.943-0.943 0.943-0.943-0.943zM5.333 17.333c-0.736 0-1.333-0.597-1.333-1.333s0.597-1.333 1.333-1.333v2.667zM18.276 7.057l8 8-1.886 1.886-8-8 1.886-1.886zM26.276 16.943l-8 8-1.886-1.886 8-8 1.886 1.886zM25.333 17.333h-20v-2.667h20v2.667z"></path>
</symbol>
<symbol id="icon-check_fill" viewBox="0 0 32 32">
<path fill="#41a5f7" style="fill: var(--color1, #41a5f7)" d="M29.333 16c0 7.364-5.97 13.333-13.333 13.333s-13.333-5.97-13.333-13.333c0-7.364 5.97-13.333 13.333-13.333s13.333 5.97 13.333 13.333z"></path>
<path fill="none" stroke="#fff" style="stroke: var(--color2, #fff)" stroke-linejoin="miter" stroke-linecap="butt" stroke-miterlimit="4" stroke-width="2.6667" d="M10.667 16l4 4 6.667-8"></path>
</symbol>
<symbol id="icon-check_ring" viewBox="0 0 32 32">
<path stroke-linejoin="miter" stroke-linecap="butt" stroke-miterlimit="4" stroke-width="2.6667" d="M28 16c0 6.627-5.373 12-12 12s-12-5.373-12-12c0-6.627 5.373-12 12-12s12 5.373 12 12z"></path>
<path stroke-linejoin="miter" stroke-linecap="butt" stroke-miterlimit="4" stroke-width="2.6667" d="M10.667 16l4 4 6.667-8"></path>
</symbol>
<symbol id="icon-close" viewBox="0 0 32 32">
<path d="M0.003 28.964l28.945-28.945 3.056 3.056-28.945 28.945-3.056-3.056z"></path>
<path d="M0.003 3.052l3.056-3.056 28.945 28.945-3.056 3.056-28.945-28.945z"></path>
</symbol>
<symbol id="icon-down_light_arrow" viewBox="0 0 32 32">
<path d="M16 26.667l-0.943 0.943 0.943 0.943 0.943-0.943-0.943-0.943zM17.333 6.667c0-0.736-0.597-1.333-1.333-1.333s-1.333 0.597-1.333 1.333h2.667zM7.057 19.609l8 8 1.886-1.886-8-8-1.886 1.886zM16.943 27.609l8-8-1.886-1.886-8 8 1.886 1.886zM17.333 26.667v-20h-2.667v20h2.667z"></path>
</symbol>
<symbol id="icon-down_light2" viewBox="0 0 32 32">
<path d="M16 20l0.943 0.943-0.943 0.943-0.943-0.943 0.943-0.943zM24.943 12.943l-8 8-1.886-1.886 8-8 1.886 1.886zM15.057 20.943l-8-8 1.886-1.886 8 8-1.886 1.886z"></path>
</symbol>
<symbol id="icon-companies" viewBox="0 0 32 32">
<path fill="#41a5f7" style="fill: var(--color1, #41a5f7)" d="M27.36 10.486h-9.92c-1.2 0-2.24 1.040-2.24 2.24v16.96h14.4v-16.96c0-1.2-1.040-2.24-2.24-2.24zM26.4 25.686h-7.2v-2.4h7.2v2.4zM26.4 20.886h-7.2v-2.4h7.2v2.4zM26.4 16.086h-7.2v-2.4h7.2v2.4zM14.8 2.486l-11.6 3.2c-0.96 0.32-1.6 1.2-1.6 2.16v21.84h12.8v-16.96c0-1.68 1.36-3.040 3.040-3.040h0.24v-5.040c0-1.52-1.44-2.56-2.88-2.16zM12.8 25.686h-6v-2.4h6v2.4zM12.8 20.886h-6v-2.4h6v2.4zM12.8 16.086h-6v-2.4h6v2.4zM12.8 11.286h-6v-2.4h6v2.4z"></path>
</symbol>
<symbol id="icon-corporate" viewBox="0 0 32 32">
<path fill="#41a5f7" style="fill: var(--color1, #41a5f7)" d="M11.629 9.629c0-2.668 2.159-4.829 4.817-4.829s4.817 2.161 4.817 4.829c0 2.668-2.156 4.829-4.817 4.829s-4.817-2.161-4.817-4.829zM17.247 16.126h-2.126c-4.058 0-7.349 3.299-7.349 7.367v2.907h16.82v-2.907c0-4.068-3.287-7.367-7.345-7.367zM23.565 16.261c-0.372 0-0.737 0.037-1.094 0.097 2.189 1.612 3.615 4.21 3.615 7.135v1.396h4.315v-1.776c-0.004-3.784-3.060-6.852-6.835-6.852zM21.126 13.861c0.696 0.646 1.627 1.045 2.654 1.045 2.163 0 3.913-1.758 3.913-3.922 0-2.168-1.754-3.922-3.913-3.922-0.514 0-1.005 0.101-1.456 0.284 0.276 0.709 0.432 1.481 0.432 2.288-0.004 1.623-0.622 3.109-1.631 4.228zM9.831 16.406c-0.45-0.093-0.92-0.146-1.4-0.146-3.771 0-6.831 3.068-6.831 6.852v1.776h4.687v-1.396c0-2.896 1.396-5.467 3.544-7.087zM8.647 14.906c1.154 0 2.185-0.504 2.904-1.299-0.879-1.086-1.407-2.47-1.407-3.978 0-0.739 0.134-1.44 0.365-2.101-0.555-0.299-1.188-0.47-1.861-0.47-2.163 0-3.913 1.758-3.913 3.922-0.004 2.168 1.75 3.926 3.913 3.926z"></path>
</symbol>
<symbol id="icon-funds" viewBox="0 0 32 32">
<path fill="#41a5f7" style="fill: var(--color1, #41a5f7)" d="M19.978 8.117h-7.956l-2.251-5.931c-0.107-0.284 0.106-0.586 0.414-0.586h11.63c0.309 0 0.521 0.301 0.414 0.586l-2.251 5.931zM16.528 21.227v2.412c0.346-0.056 0.62-0.192 0.821-0.407s0.302-0.481 0.302-0.798c0-0.294-0.095-0.535-0.285-0.722-0.189-0.187-0.468-0.349-0.838-0.484zM14.383 17.116c0 0.283 0.090 0.52 0.268 0.713s0.435 0.363 0.769 0.51v-2.361c-0.323 0.057-0.576 0.178-0.761 0.365s-0.276 0.445-0.276 0.773zM26.915 30.4h-21.83c-1.474 0-2.367-1.58-1.609-2.821 1.259-2.061 1.369-4.459 1.369-4.459v-3.589c0-3.025 1.249-5.764 3.268-7.746 1.161-1.14 2.577-2.029 4.156-2.58h7.463c4.326 1.507 7.424 5.56 7.424 10.325v3.589c0 0 0.11 2.398 1.369 4.459 0.757 1.242-0.136 2.822-1.61 2.822zM20.747 22.33c0-0.815-0.205-1.458-0.614-1.928s-0.874-0.807-1.392-1.010c-0.519-0.204-1.257-0.436-2.214-0.696v-2.633c0.519 0.181 0.812 0.577 0.882 1.189h3.165c-0.081-1.064-0.472-1.896-1.176-2.497s-1.661-0.945-2.871-1.036v-1.376h-1.107v1.376c-1.222 0.079-2.222 0.43-3 1.053s-1.167 1.449-1.167 2.479c0 0.827 0.202 1.478 0.605 1.953s0.873 0.821 1.41 1.036c0.536 0.215 1.254 0.436 2.153 0.663v2.684c-0.6-0.192-0.934-0.628-1.003-1.308h-3.148c0.046 1.065 0.444 1.905 1.194 2.522s1.736 0.977 2.957 1.079v1.393h1.107v-1.376c0.876-0.034 1.634-0.218 2.275-0.552s1.124-0.765 1.453-1.291c0.329-0.526 0.492-1.101 0.492-1.723z"></path>
</symbol>
<symbol id="icon-bank" viewBox="0 0 32 32">
<path fill="#41a5f7" style="fill: var(--color1, #41a5f7)" d="M28.657 28.713h1.744v1.687h-28.802v-1.687h1.744v-1.687h25.313v1.687zM28.657 10.089h-25.313v3.376h25.313v-3.376zM26.983 25.337v-10.183h-4.412v10.183h4.412zM9.428 25.337v-10.183h-4.412v10.183h4.412zM18.205 25.337v-10.183h-4.41v10.183h4.41zM1.6 6.964v1.432h28.8v-1.432l-14.4-5.364-14.4 5.364z"></path>
</symbol>
<symbol id="icon-protected" viewBox="0 0 32 32">
<path  d="M19.402 18.305v0.192c0.004 0.676-0.542 1.224-1.21 1.224h-3.675l-0.012-2.636h3.675c0.673-0.004 1.222 0.544 1.222 1.22zM18.976 13.789v-0.18c-0.004-0.604-0.498-1.096-1.099-1.096h-3.397l0.012 2.376h3.393c0.605-0.004 1.091-0.496 1.091-1.1zM26.131 23.197c-3.906 5.668-9.668 7.12-9.911 7.18-0.076 0.016-0.147 0.024-0.223 0.024s-0.147-0.008-0.219-0.028c-0.243-0.060-6.005-1.512-9.911-7.18-3.91-5.676-2.385-17.080-2.321-17.564 0.052-0.368 0.319-0.676 0.677-0.776l11.524-3.22c0.163-0.044 0.338-0.044 0.502 0l11.524 3.22c0.358 0.1 0.625 0.404 0.677 0.776 0.068 0.484 1.593 11.892-2.318 17.568zM21.588 18.493v-0.192c-0.004-0.988-0.434-1.88-1.107-2.504 0.426-0.556 0.681-1.252 0.677-2.012v-0.18c-0.008-1.748-1.378-3.18-3.094-3.284l-0.008-1.244h-2.186l0.004 1.236h-0.896l-0.008-1.236h-2.186l0.004 1.236h-1.585l0.012 2.196h1.083l0.012 2.376 0.012 2.196 0.012 2.636h-1.083l0.012 2.196h1.593l0.004 1.008h2.186l-0.004-1.008h0.896l0.004 1.008h2.186l-0.004-1.008h0.084c1.872 0 3.393-1.532 3.381-3.42z"></path>
</symbol>
<symbol id="icon-leaf" viewBox="0 0 32 32">
<path  d="M3.425 28.576c0.271 0.3 0.781 0.3 1.053 0l3.344-3.345c0.662 0.090 2.118 0.255 3.965 0.255 3.8 0 9.233-0.708 12.778-4.238 5.552-5.558 4.121-15.831 3.932-17.024-0.090-0.576-0.341-0.666-0.839-0.741-1.62-0.243-11.503-1.448-16.912 3.945-5.24 5.258-4.248 14.737-3.977 16.748l-3.344 3.345c-0.3 0.288-0.3 0.765 0 1.053zM8.352 22.594l2.455-2.46v-7.204c0-0.416 0.337-0.753 0.753-0.753s0.753 0.337 0.753 0.753v5.702l3.002-3.007v-7.307c0-0.415 0.337-0.753 0.753-0.753s0.753 0.337 0.753 0.753v5.801l3.002-3.007v-3.974c0-0.416 0.337-0.753 0.753-0.753s0.753 0.337 0.753 0.753v2.473l4.499-4.509c0.757-0.757 1.818 0.317 1.065 1.066l-4.512 4.509h2.472c0.415 0 0.753 0.337 0.753 0.753s-0.337 0.753-0.753 0.753h-3.977l-3.006 3.003h5.799c0.415 0 0.753 0.337 0.753 0.753s-0.337 0.753-0.753 0.753h-7.3l-3.006 3.003h5.7c0.415 0 0.753 0.337 0.753 0.753s-0.337 0.753-0.753 0.753h-7.201l-2.455 2.456c-0.646 0.634-1.69-0.424-1.053-1.061z"></path>
</symbol>
<symbol id="icon-smart" viewBox="0 0 32 32">
<path d="M19.169 8.895h-2.442v0.968h2.442c0.811 0 1.462-0.651 1.462-1.443v-2.983c0.668-0.238 1.079-0.915 0.954-1.61s-0.731-1.206-1.444-1.206c-0.713 0-1.319 0.51-1.444 1.206s0.285 1.373 0.954 1.61v2.983c0.009 0.264-0.205 0.475-0.481 0.475zM16.727 11.79h4.885c0.267 0 0.49-0.22 0.49-0.484s-0.223-0.484-0.49-0.484h-4.885v0.968zM16.727 22.393h2.442c0.267 0 0.49 0.22 0.49 0.484v2.983c-0.669 0.238-1.079 0.915-0.954 1.61s0.731 1.206 1.444 1.206 1.319-0.51 1.444-1.206c0.125-0.695-0.285-1.373-0.954-1.61v-2.983c0-0.801-0.66-1.443-1.462-1.443h-2.442l-0.009 0.959zM24.054 17.571h-7.327v0.968h7.327c0.267 0 0.49 0.22 0.49 0.484v2.499c-0.669 0.238-1.079 0.915-0.954 1.61s0.731 1.206 1.444 1.206c0.713 0 1.319-0.51 1.444-1.206s-0.285-1.373-0.954-1.61v-2.499c-0.009-0.801-0.66-1.443-1.471-1.452zM28.938 14.201c-0.615 0-1.168 0.387-1.373 0.968h-10.839v0.968h10.83c0.25 0.695 0.98 1.091 1.711 0.924 0.722-0.167 1.203-0.845 1.123-1.575-0.089-0.739-0.713-1.285-1.453-1.285zM22.102 19.982c0-0.264-0.223-0.484-0.49-0.484h-4.885v0.968h4.885c0.267 0 0.49-0.22 0.49-0.484zM25.516 12.274v-2.499c0.668-0.238 1.079-0.915 0.954-1.61s-0.722-1.197-1.435-1.197c-0.713 0-1.319 0.51-1.444 1.206s0.285 1.373 0.954 1.61v2.499c0 0.264-0.223 0.484-0.49 0.484h-7.327v0.968h7.327c0.811-0.018 1.462-0.66 1.462-1.461zM11.904 1.6c-2.237 0-4.154 1.39-4.911 3.344 1.801 0.035 3.494 0.739 4.769 1.998 0.009 0.009 0.009 0.009 0.018 0.018 0.562 0.563-0.027 1.505-0.793 1.267-0.25-0.079-0.472-0.202-0.669-0.37-1.052-0.906-2.371-1.329-3.672-1.276-2.799 0.114-5.045 2.402-5.045 5.192 0 1.47 0.633 2.86 1.703 3.828-1.070 0.977-1.703 2.358-1.703 3.828 0 2.789 2.246 5.077 5.045 5.192 0.116 2.763 2.433 4.98 5.259 4.98 0.054 0 0.098 0 0.152 0 1.079-0.026 2.086-0.422 2.897-1.109v-25.783c-0.811-0.686-1.827-1.074-2.897-1.109-0.053 0-0.098 0-0.152 0z"></path>
</symbol>
<symbol id="icon-left_light" viewBox="0 0 32 32">
<path d="M6.667 16l-0.943-0.943-0.943 0.943 0.943 0.943 0.943-0.943zM26.667 17.333c0.736 0 1.333-0.597 1.333-1.333s-0.597-1.333-1.333-1.333v2.667zM13.724 7.057l-8 8 1.886 1.886 8-8-1.886-1.886zM5.724 16.943l8 8 1.886-1.886-8-8-1.886 1.886zM6.667 17.333h20v-2.667h-20v2.667z"></path>
</symbol>
<symbol id="icon-left_light3" viewBox="0 0 32 32">
<path d="M12 16l-0.943-0.943-0.943 0.943 0.943 0.943 0.943-0.943zM19.057 7.057l-8 8 1.886 1.886 8-8-1.886-1.886zM11.057 16.943l8 8 1.886-1.886-8-8-1.886 1.886z"></path>
</symbol>
<symbol id="icon-menu" viewBox="0 0 43 32">
<path d="M40 5.34h-37.32c-0.069 0.006-0.15 0.010-0.231 0.010-1.48 0-2.68-1.2-2.68-2.68s1.2-2.68 2.68-2.68c0.081 0 0.162 0.004 0.242 0.011l-0.010-0.001h37.32c0.069-0.006 0.15-0.010 0.231-0.010 1.48 0 2.68 1.2 2.68 2.68s-1.2 2.68-2.68 2.68c-0.081 0-0.162-0.004-0.242-0.011l0.010 0.001z"></path>
<path d="M40 18.66h-37.32c-1.469 0-2.66-1.191-2.66-2.66s1.191-2.66 2.66-2.66v0h37.32c1.469 0 2.66 1.191 2.66 2.66s-1.191 2.66-2.66 2.66v0z"></path>
<path d="M40 32h-37.32c-0.069 0.006-0.15 0.010-0.231 0.010-1.48 0-2.68-1.2-2.68-2.68s1.2-2.68 2.68-2.68c0.081 0 0.162 0.004 0.242 0.011l-0.010-0.001h37.32c0.069-0.006 0.15-0.010 0.231-0.010 1.48 0 2.68 1.2 2.68 2.68s-1.2 2.68-2.68 2.68c-0.081 0-0.162-0.004-0.242-0.011l0.010 0.001z"></path>
</symbol>
<symbol id="icon-right_light2" viewBox="0 0 32 32">
<path d="M20 16l0.943-0.943 0.943 0.943-0.943 0.943-0.943-0.943zM12.943 7.057l8 8-1.886 1.886-8-8 1.886-1.886zM20.943 16.943l-8 8-1.886-1.886 8-8 1.886 1.886z"></path>
</symbol>
<symbol id="icon-ring" viewBox="0 0 32 32">
<path stroke-linejoin="miter" stroke-linecap="butt" stroke-miterlimit="4" stroke-width="2.6667" d="M28 16c0 6.627-5.373 12-12 12s-12-5.373-12-12c0-6.627 5.373-12 12-12s12 5.373 12 12z"></path>
</symbol>
<symbol id="icon-search" viewBox="0 0 32 32">
<path stroke-linejoin="miter" stroke-linecap="butt" stroke-miterlimit="4" stroke-width="2.6667" d="M24 14.667c0 5.155-4.179 9.333-9.333 9.333s-9.333-4.179-9.333-9.333c0-5.155 4.179-9.333 9.333-9.333s9.333 4.179 9.333 9.333z"></path>
<path stroke-linejoin="miter" stroke-linecap="round" stroke-miterlimit="4" stroke-width="2.6667" d="M26.667 26.667l-4-4"></path>
</symbol>
<symbol id="icon-send_fill" viewBox="0 0 32 32">
<path d="M13.252 16.862l-2.996-0.999c-3.138-1.046-4.706-1.569-4.706-2.53s1.569-1.484 4.706-2.53l11.351-3.784c2.208-0.736 3.312-1.104 3.894-0.521s0.215 1.687-0.521 3.894l-3.784 11.351c-1.046 3.138-1.569 4.706-2.53 4.706s-1.484-1.569-2.53-4.706l-0.999-2.996 5.805-5.805c0.521-0.521 0.521-1.365 0-1.886s-1.365-0.521-1.886 0l-5.805 5.805z"></path>
</symbol>
<symbol id="icon-top_light" viewBox="0 0 32 32">
<path d="M16 5.333l-0.943-0.943 0.943-0.943 0.943 0.943-0.943 0.943zM17.333 25.333c0 0.736-0.597 1.333-1.333 1.333s-1.333-0.597-1.333-1.333h2.667zM7.057 12.391l8-8 1.886 1.886-8 8-1.886-1.886zM16.943 4.391l8 8-1.886 1.886-8-8 1.886-1.886zM17.333 5.333v20h-2.667v-20h2.667z"></path>
</symbol>
</defs>
</svg>
